<svg xmlns="http://www.w3.org/2000/svg" xmlns:xlink="http://www.w3.org/1999/xlink"><symbol fill="none" id="ic_check" viewBox="0 0 24 24"><path fill="currentColor" d="M20.707 5.293a1 1 0 0 1 0 1.414l-11 11a1 1 0 0 1-1.414 0l-5-5a1 1 0 1 1 1.414-1.414L9 15.586 19.293 5.293a1 1 0 0 1 1.414 0"/></symbol><use xlink:href="#ic_check" width="24" height="24" y="0"/><symbol fill="none" id="ic_chevron-down" viewBox="0 0 24 24"><path stroke="currentColor" stroke-linecap="round" stroke-linejoin="round" stroke-width="2" d="m6 9 6 6 6-6"/></symbol><use xlink:href="#ic_chevron-down" width="24" height="24" y="24"/><symbol fill="none" id="ic_x" viewBox="0 0 24 24"><path stroke="currentColor" stroke-linecap="round" stroke-linejoin="round" stroke-width="2" d="M18 6 6 18M6 6l12 12"/></symbol><use xlink:href="#ic_x" width="24" height="24" y="48"/></svg>